<mxfile host="app.diagrams.net" agent="Mozilla/5.0 (Windows NT 10.0; Win64; x64) AppleWebKit/537.36 (KHTML, like Gecko) Chrome/121.0.0.0 Safari/537.36" version="24.7.16">
  <diagram name="第 1 页" id="lg_SpBoe9I4gKLeaDJEI">
    <mxGraphModel dx="1118" dy="547" grid="1" gridSize="10" guides="1" tooltips="1" connect="1" arrows="1" fold="1" page="1" pageScale="1" pageWidth="827" pageHeight="1169" math="0" shadow="0">
      <root>
        <mxCell id="0" />
        <mxCell id="1" parent="0" />
        <mxCell id="r6HxHEpXDy4I0rtk-ksx-13" value="" style="rounded=1;whiteSpace=wrap;html=1;" vertex="1" parent="1">
          <mxGeometry x="30" y="268" width="460" height="250" as="geometry" />
        </mxCell>
        <mxCell id="r6HxHEpXDy4I0rtk-ksx-1" value="Perception" style="rounded=1;whiteSpace=wrap;html=1;" vertex="1" parent="1">
          <mxGeometry x="380" y="50" width="120" height="60" as="geometry" />
        </mxCell>
        <mxCell id="r6HxHEpXDy4I0rtk-ksx-2" value="Prediction" style="rounded=1;whiteSpace=wrap;html=1;" vertex="1" parent="1">
          <mxGeometry x="1000" y="50" width="120" height="60" as="geometry" />
        </mxCell>
        <mxCell id="r6HxHEpXDy4I0rtk-ksx-3" value="Planning" style="rounded=1;whiteSpace=wrap;html=1;" vertex="1" parent="1">
          <mxGeometry x="1280" y="60" width="120" height="60" as="geometry" />
        </mxCell>
        <mxCell id="r6HxHEpXDy4I0rtk-ksx-4" value="TrackFormer" style="rounded=1;whiteSpace=wrap;html=1;" vertex="1" parent="1">
          <mxGeometry x="200" y="180" width="120" height="60" as="geometry" />
        </mxCell>
        <mxCell id="r6HxHEpXDy4I0rtk-ksx-5" value="MapFormer" style="rounded=1;whiteSpace=wrap;html=1;" vertex="1" parent="1">
          <mxGeometry x="610" y="180" width="120" height="60" as="geometry" />
        </mxCell>
        <mxCell id="r6HxHEpXDy4I0rtk-ksx-6" value="initialized detection&lt;div&gt;Queries&lt;/div&gt;&lt;div&gt;探测新物体&lt;/div&gt;" style="rounded=1;whiteSpace=wrap;html=1;" vertex="1" parent="1">
          <mxGeometry x="40" y="440" width="120" height="60" as="geometry" />
        </mxCell>
        <mxCell id="r6HxHEpXDy4I0rtk-ksx-7" value="track Queries&lt;div&gt;跟踪物体轨迹&lt;/div&gt;" style="rounded=1;whiteSpace=wrap;html=1;" vertex="1" parent="1">
          <mxGeometry x="200" y="440" width="120" height="60" as="geometry" />
        </mxCell>
        <mxCell id="r6HxHEpXDy4I0rtk-ksx-8" value="self-attention" style="rounded=1;whiteSpace=wrap;html=1;" vertex="1" parent="1">
          <mxGeometry x="200" y="390" width="120" height="30" as="geometry" />
        </mxCell>
        <mxCell id="r6HxHEpXDy4I0rtk-ksx-9" value="上一个time step的track information" style="rounded=1;whiteSpace=wrap;html=1;" vertex="1" parent="1">
          <mxGeometry x="200" y="310" width="120" height="60" as="geometry" />
        </mxCell>
        <mxCell id="r6HxHEpXDy4I0rtk-ksx-10" value="track Queries&lt;div&gt;跟踪物体轨迹&lt;/div&gt;" style="rounded=1;whiteSpace=wrap;html=1;" vertex="1" parent="1">
          <mxGeometry x="360" y="440" width="120" height="60" as="geometry" />
        </mxCell>
        <mxCell id="r6HxHEpXDy4I0rtk-ksx-11" value="self-attention" style="rounded=1;whiteSpace=wrap;html=1;" vertex="1" parent="1">
          <mxGeometry x="360" y="390" width="120" height="30" as="geometry" />
        </mxCell>
        <mxCell id="r6HxHEpXDy4I0rtk-ksx-12" value="上一个time step的track information" style="rounded=1;whiteSpace=wrap;html=1;" vertex="1" parent="1">
          <mxGeometry x="360" y="310" width="120" height="60" as="geometry" />
        </mxCell>
        <mxCell id="r6HxHEpXDy4I0rtk-ksx-14" value="other agents" style="text;html=1;align=center;verticalAlign=middle;whiteSpace=wrap;rounded=0;" vertex="1" parent="1">
          <mxGeometry x="150" y="268" width="80" height="30" as="geometry" />
        </mxCell>
        <mxCell id="r6HxHEpXDy4I0rtk-ksx-15" value="ego vehicle" style="text;html=1;align=center;verticalAlign=middle;whiteSpace=wrap;rounded=0;" vertex="1" parent="1">
          <mxGeometry x="380" y="268" width="80" height="30" as="geometry" />
        </mxCell>
        <mxCell id="r6HxHEpXDy4I0rtk-ksx-16" value="" style="endArrow=classic;html=1;rounded=0;exitX=0.5;exitY=1;exitDx=0;exitDy=0;" edge="1" parent="1" source="r6HxHEpXDy4I0rtk-ksx-9" target="r6HxHEpXDy4I0rtk-ksx-8">
          <mxGeometry width="50" height="50" relative="1" as="geometry">
            <mxPoint x="450" y="340" as="sourcePoint" />
            <mxPoint x="500" y="290" as="targetPoint" />
          </mxGeometry>
        </mxCell>
        <mxCell id="r6HxHEpXDy4I0rtk-ksx-17" value="" style="endArrow=classic;html=1;rounded=0;exitX=0.5;exitY=1;exitDx=0;exitDy=0;" edge="1" parent="1" source="r6HxHEpXDy4I0rtk-ksx-8" target="r6HxHEpXDy4I0rtk-ksx-7">
          <mxGeometry width="50" height="50" relative="1" as="geometry">
            <mxPoint x="600" y="440" as="sourcePoint" />
            <mxPoint x="650" y="390" as="targetPoint" />
          </mxGeometry>
        </mxCell>
        <mxCell id="r6HxHEpXDy4I0rtk-ksx-18" value="" style="endArrow=classic;html=1;rounded=0;exitX=1;exitY=0.5;exitDx=0;exitDy=0;entryX=0;entryY=0.5;entryDx=0;entryDy=0;" edge="1" parent="1" source="r6HxHEpXDy4I0rtk-ksx-6" target="r6HxHEpXDy4I0rtk-ksx-7">
          <mxGeometry width="50" height="50" relative="1" as="geometry">
            <mxPoint x="160" y="480" as="sourcePoint" />
            <mxPoint x="210" y="430" as="targetPoint" />
          </mxGeometry>
        </mxCell>
        <mxCell id="r6HxHEpXDy4I0rtk-ksx-19" value="" style="endArrow=classic;html=1;rounded=0;exitX=0.5;exitY=1;exitDx=0;exitDy=0;entryX=0.5;entryY=0;entryDx=0;entryDy=0;" edge="1" parent="1" source="r6HxHEpXDy4I0rtk-ksx-12" target="r6HxHEpXDy4I0rtk-ksx-11">
          <mxGeometry width="50" height="50" relative="1" as="geometry">
            <mxPoint x="510" y="410" as="sourcePoint" />
            <mxPoint x="560" y="360" as="targetPoint" />
          </mxGeometry>
        </mxCell>
        <mxCell id="r6HxHEpXDy4I0rtk-ksx-20" value="" style="endArrow=classic;html=1;rounded=0;exitX=0.5;exitY=1;exitDx=0;exitDy=0;" edge="1" parent="1" source="r6HxHEpXDy4I0rtk-ksx-11" target="r6HxHEpXDy4I0rtk-ksx-10">
          <mxGeometry width="50" height="50" relative="1" as="geometry">
            <mxPoint x="570" y="490" as="sourcePoint" />
            <mxPoint x="620" y="440" as="targetPoint" />
          </mxGeometry>
        </mxCell>
        <mxCell id="r6HxHEpXDy4I0rtk-ksx-21" value="&lt;div&gt;地图环境&lt;/div&gt;N stack layers" style="rounded=1;whiteSpace=wrap;html=1;" vertex="1" parent="1">
          <mxGeometry x="610" y="268" width="120" height="60" as="geometry" />
        </mxCell>
        <mxCell id="r6HxHEpXDy4I0rtk-ksx-22" value="map Queries" style="rounded=1;whiteSpace=wrap;html=1;" vertex="1" parent="1">
          <mxGeometry x="610" y="360" width="120" height="60" as="geometry" />
        </mxCell>
        <mxCell id="r6HxHEpXDy4I0rtk-ksx-23" value="" style="endArrow=classic;html=1;rounded=0;entryX=0.5;entryY=0;entryDx=0;entryDy=0;" edge="1" parent="1" target="r6HxHEpXDy4I0rtk-ksx-13">
          <mxGeometry width="50" height="50" relative="1" as="geometry">
            <mxPoint x="260" y="240" as="sourcePoint" />
            <mxPoint x="310" y="190" as="targetPoint" />
          </mxGeometry>
        </mxCell>
        <mxCell id="r6HxHEpXDy4I0rtk-ksx-24" value="" style="endArrow=classic;html=1;rounded=0;entryX=0.5;entryY=0;entryDx=0;entryDy=0;" edge="1" parent="1" target="r6HxHEpXDy4I0rtk-ksx-21">
          <mxGeometry width="50" height="50" relative="1" as="geometry">
            <mxPoint x="670" y="240" as="sourcePoint" />
            <mxPoint x="720" y="190" as="targetPoint" />
          </mxGeometry>
        </mxCell>
        <mxCell id="r6HxHEpXDy4I0rtk-ksx-25" value="" style="endArrow=classic;html=1;rounded=0;entryX=0.5;entryY=0;entryDx=0;entryDy=0;" edge="1" parent="1" source="r6HxHEpXDy4I0rtk-ksx-21" target="r6HxHEpXDy4I0rtk-ksx-22">
          <mxGeometry width="50" height="50" relative="1" as="geometry">
            <mxPoint x="670" y="330" as="sourcePoint" />
            <mxPoint x="720" y="280" as="targetPoint" />
          </mxGeometry>
        </mxCell>
      </root>
    </mxGraphModel>
  </diagram>
</mxfile>
